<?xml version="1.0" encoding="iso-8859-1"?>
<!-- Generator: Adobe Illustrator 19.0.0, SVG Export Plug-In . SVG Version: 6.00 Build 0)  -->
<svg version="1.1" id="Capa_1" xmlns="http://www.w3.org/2000/svg" xmlns:xlink="http://www.w3.org/1999/xlink" x="0px" y="0px"
	 viewBox="0 0 81.369 81.369" style="enable-background:new 0 0 81.369 81.369;" xml:space="preserve">
<g>
	<path d="M79.155,24.392c-1.313-0.906-3.014-1.149-4.525-0.65l-12.436,3.119v-4.977c0-5.754-4.682-10.436-10.436-10.436H10.436
		C4.682,11.448,0,16.129,0,21.884v37.601c0,5.754,4.681,10.435,10.436,10.435h41.322c5.754,0,10.436-4.681,10.436-10.435v-3.608
		l12.441,3.121c1.523,0.498,3.208,0.252,4.533-0.662c1.378-0.961,2.201-2.536,2.201-4.215V28.617
		C81.37,26.94,80.548,25.365,79.155,24.392z M75.37,52.997l-19.176-4.811v11.3c0,2.445-1.99,4.435-4.436,4.435H10.436
		C7.99,63.921,6,61.932,6,59.486V21.884c0-2.446,1.99-4.436,4.436-4.436h41.322c2.445,0,4.436,1.99,4.436,4.436v12.667l19.176-4.81
		V52.997z"/>
	<path d="M45.105,38.207L23.139,25.523c-0.928-0.536-2.072-0.536-3,0s-1.5,1.526-1.5,2.598v25.365c0,1.072,0.572,2.063,1.5,2.598
		c0.464,0.269,0.982,0.402,1.5,0.402s1.036-0.134,1.5-0.402l21.966-12.682c0.929-0.535,1.5-1.525,1.5-2.598
		C46.605,39.733,46.034,38.742,45.105,38.207z M24.639,48.291V33.318l12.966,7.486L24.639,48.291z"/>
</g>
<g>
</g>
<g>
</g>
<g>
</g>
<g>
</g>
<g>
</g>
<g>
</g>
<g>
</g>
<g>
</g>
<g>
</g>
<g>
</g>
<g>
</g>
<g>
</g>
<g>
</g>
<g>
</g>
<g>
</g>
</svg>
